<?xml version="1.0" encoding="UTF-8" standalone="no"?>
<svg
   xmlns:dc="http://purl.org/dc/elements/1.1/"
   xmlns:cc="http://creativecommons.org/ns#"
   xmlns:rdf="http://www.w3.org/1999/02/22-rdf-syntax-ns#"
   xmlns:svg="http://www.w3.org/2000/svg"
   xmlns="http://www.w3.org/2000/svg"
   xmlns:sodipodi="http://sodipodi.sourceforge.net/DTD/sodipodi-0.dtd"
   xmlns:inkscape="http://www.inkscape.org/namespaces/inkscape"
   width="190.01076mm"
   height="100.00001mm"
   viewBox="0 0 190.01076 100.00001"
   version="1.1"
   id="svg8"
   sodipodi:docname="flag1.svg"
   inkscape:version="1.0.1 (3bc2e813f5, 2020-09-07)">
  <defs
     id="defs2" />
  <sodipodi:namedview
     id="base"
     pagecolor="#ffffff"
     bordercolor="#666666"
     borderopacity="1.0"
     inkscape:pageopacity="0.0"
     inkscape:pageshadow="2"
     inkscape:zoom="1.15"
     inkscape:cx="289.86701"
     inkscape:cy="127.186"
     inkscape:document-units="mm"
     inkscape:current-layer="layer1"
     inkscape:document-rotation="0"
     showgrid="false"
     inkscape:window-width="1920"
     inkscape:window-height="1013"
     inkscape:window-x="0"
     inkscape:window-y="0"
     inkscape:window-maximized="1" />
  <metadata
     id="metadata5">
    <rdf:RDF>
      <cc:Work
         rdf:about="">
        <dc:format>image/svg+xml</dc:format>
        <dc:type
           rdf:resource="http://purl.org/dc/dcmitype/StillImage" />
      </cc:Work>
    </rdf:RDF>
  </metadata>
  <g
     inkscape:label="Layer 1"
     inkscape:groupmode="layer"
     id="layer1"
     transform="translate(-11.762784,-27.276969)">
    <rect
       style="fill:#808080;fill-rule:evenodd;stroke:#ffffff;stroke-width:0"
       id="rect10"
       width="190"
       height="100"
       x="11.762784"
       y="27.27697" />
    <rect
       style="fill:#0018cc;fill-rule:evenodd;stroke:#ffffff;stroke-width:0"
       id="rect12"
       width="77.824707"
       height="54"
       x="11.762784"
       y="27.27697" />
    <path
       sodipodi:type="star"
       style="fill:#ffffff;fill-rule:evenodd;stroke:#ffffff;stroke-width:0"
       id="path14"
       sodipodi:sides="5"
       sodipodi:cx="40"
       sodipodi:cy="50"
       sodipodi:r1="8.4331713"
       sodipodi:r2="18.282173"
       sodipodi:arg1="-0.9745147"
       sodipodi:arg2="-0.34619618"
       inkscape:flatsided="false"
       inkscape:rounded="0"
       inkscape:randomized="0"
       d="m 44.735813,43.022146 12.461683,0.774308 -9.097715,8.551296 3.11446,12.09104 -10.944115,-6.009946 -10.53684,6.698365 2.333881,-12.265647 -9.626586,-7.951223 12.386532,-1.570641 4.587283,-11.61249 z"
       inkscape:transform-center-x="-1.8921269"
       inkscape:transform-center-y="-0.096017674"
       transform="matrix(0.21697395,0,0,0.19922523,9.9584619,22.229108)" />
    <path
       sodipodi:type="star"
       style="fill:#ffffff;fill-rule:evenodd;stroke:#ffffff;stroke-width:0"
       id="path14-3"
       sodipodi:sides="5"
       sodipodi:cx="40.534786"
       sodipodi:cy="50"
       sodipodi:r1="8.4331713"
       sodipodi:r2="18.282173"
       sodipodi:arg1="-0.9745147"
       sodipodi:arg2="-0.34619618"
       inkscape:flatsided="false"
       inkscape:rounded="0"
       inkscape:randomized="0"
       d="m 45.270599,43.022146 12.461683,0.774308 -9.097715,8.551296 3.114461,12.09104 -10.944115,-6.009946 -10.536841,6.698365 2.333881,-12.265647 -9.626586,-7.951223 12.386532,-1.570641 4.587283,-11.61249 z"
       inkscape:transform-center-x="-1.8921269"
       inkscape:transform-center-y="-0.096017674"
       transform="matrix(0.21697395,0,0,0.19922523,22.347942,22.222168)" />
    <path
       sodipodi:type="star"
       style="fill:#ffffff;fill-rule:evenodd;stroke:#ffffff;stroke-width:0"
       id="path14-6"
       sodipodi:sides="5"
       sodipodi:cx="40.534786"
       sodipodi:cy="54.33086"
       sodipodi:r1="8.4331713"
       sodipodi:r2="18.282173"
       sodipodi:arg1="-0.9745147"
       sodipodi:arg2="-0.34619618"
       inkscape:flatsided="false"
       inkscape:rounded="0"
       inkscape:randomized="0"
       d="M 45.270599,47.353006 57.732282,48.127314 48.634567,56.678611 51.749028,68.76965 40.804913,62.759704 30.268072,69.458069 32.601953,57.192422 22.975367,49.2412 35.361899,47.670559 39.949182,36.058068 Z"
       inkscape:transform-center-x="-1.8921269"
       inkscape:transform-center-y="-0.096017674"
       transform="matrix(0.21697395,0,0,0.19922523,34.929954,21.361828)" />
    <path
       sodipodi:type="star"
       style="fill:#ffffff;fill-rule:evenodd;stroke:#ffffff;stroke-width:0"
       id="path14-7"
       sodipodi:sides="5"
       sodipodi:cx="40.534786"
       sodipodi:cy="54.33086"
       sodipodi:r1="8.4331713"
       sodipodi:r2="18.282173"
       sodipodi:arg1="-0.9745147"
       sodipodi:arg2="-0.34619618"
       inkscape:flatsided="false"
       inkscape:rounded="0"
       inkscape:randomized="0"
       d="M 45.270599,47.353006 57.732282,48.127314 48.634567,56.678611 51.749028,68.76965 40.804913,62.759704 30.268072,69.458069 32.601953,57.192422 22.975367,49.2412 35.361899,47.670559 39.949182,36.058068 Z"
       inkscape:transform-center-x="-1.8921269"
       inkscape:transform-center-y="-0.096017674"
       transform="matrix(0.21697395,0,0,0.19922523,47.944867,21.333628)" />
    <path
       sodipodi:type="star"
       style="fill:#ffffff;fill-rule:evenodd;stroke:#ffffff;stroke-width:0"
       id="path14-5"
       sodipodi:sides="5"
       sodipodi:cx="40.534786"
       sodipodi:cy="54.33086"
       sodipodi:r1="8.4331713"
       sodipodi:r2="18.282173"
       sodipodi:arg1="-0.9745147"
       sodipodi:arg2="-0.34619618"
       inkscape:flatsided="false"
       inkscape:rounded="0"
       inkscape:randomized="0"
       d="M 45.270599,47.353006 57.732282,48.127314 48.634567,56.678611 51.749028,68.76965 40.804913,62.759704 30.268072,69.458069 32.601953,57.192422 22.975367,49.2412 35.361899,47.670559 39.949182,36.058068 Z"
       inkscape:transform-center-x="-1.8921269"
       inkscape:transform-center-y="-0.096017674"
       transform="matrix(0.21697395,0,0,0.19922523,60.851702,21.359169)" />
    <path
       sodipodi:type="star"
       style="fill:#ffffff;fill-rule:evenodd;stroke:#ffffff;stroke-width:0"
       id="path14-35"
       sodipodi:sides="5"
       sodipodi:cx="40.534786"
       sodipodi:cy="54.33086"
       sodipodi:r1="8.4331713"
       sodipodi:r2="18.282173"
       sodipodi:arg1="-0.9745147"
       sodipodi:arg2="-0.34619618"
       inkscape:flatsided="false"
       inkscape:rounded="0"
       inkscape:randomized="0"
       d="M 45.270599,47.353006 57.732282,48.127314 48.634567,56.678611 51.749028,68.76965 40.804913,62.759704 30.268072,69.458069 32.601953,57.192422 22.975367,49.2412 35.361899,47.670559 39.949182,36.058068 Z"
       inkscape:transform-center-x="-1.8921269"
       inkscape:transform-center-y="-0.096017674"
       transform="matrix(0.21697395,0,0,0.19922523,73.202203,21.403611)" />
    <path
       sodipodi:type="star"
       style="fill:#ffffff;fill-rule:evenodd;stroke:#ffffff;stroke-width:0"
       id="path14-62"
       sodipodi:sides="5"
       sodipodi:cx="40.534786"
       sodipodi:cy="54.33086"
       sodipodi:r1="8.4331713"
       sodipodi:r2="18.282173"
       sodipodi:arg1="-0.9745147"
       sodipodi:arg2="-0.34619618"
       inkscape:flatsided="false"
       inkscape:rounded="0"
       inkscape:randomized="0"
       d="M 45.270599,47.353006 57.732282,48.127314 48.634567,56.678611 51.749028,68.76965 40.804913,62.759704 30.268072,69.458069 32.601953,57.192422 22.975367,49.2412 35.361899,47.670559 39.949182,36.058068 Z"
       inkscape:transform-center-x="-1.8921269"
       inkscape:transform-center-y="-0.096017674"
       transform="matrix(0.21697395,0,0,0.19922523,16.180514,26.97359)" />
    <path
       sodipodi:type="star"
       style="fill:#ffffff;fill-rule:evenodd;stroke:#ffffff;stroke-width:0"
       id="path14-9"
       sodipodi:sides="5"
       sodipodi:cx="40.534786"
       sodipodi:cy="54.33086"
       sodipodi:r1="8.4331713"
       sodipodi:r2="18.282173"
       sodipodi:arg1="-0.9745147"
       sodipodi:arg2="-0.34619618"
       inkscape:flatsided="false"
       inkscape:rounded="0"
       inkscape:randomized="0"
       d="M 45.270599,47.353006 57.732282,48.127314 48.634567,56.678611 51.749028,68.76965 40.804913,62.759704 30.268072,69.458069 32.601953,57.192422 22.975367,49.2412 35.361899,47.670559 39.949182,36.058068 Z"
       inkscape:transform-center-x="-1.8921269"
       inkscape:transform-center-y="-0.096017674"
       transform="matrix(0.21697395,0,0,0.19922523,28.665974,27.567538)" />
    <path
       sodipodi:type="star"
       style="fill:#ffffff;fill-rule:evenodd;stroke:#ffffff;stroke-width:0"
       id="path14-1"
       sodipodi:sides="5"
       sodipodi:cx="40.534786"
       sodipodi:cy="54.33086"
       sodipodi:r1="8.4331713"
       sodipodi:r2="18.282173"
       sodipodi:arg1="-0.9745147"
       sodipodi:arg2="-0.34619618"
       inkscape:flatsided="false"
       inkscape:rounded="0"
       inkscape:randomized="0"
       d="M 45.270599,47.353006 57.732282,48.127314 48.634567,56.678611 51.749028,68.76965 40.804913,62.759704 30.268072,69.458069 32.601953,57.192422 22.975367,49.2412 35.361899,47.670559 39.949182,36.058068 Z"
       inkscape:transform-center-x="-1.8921269"
       inkscape:transform-center-y="-0.096017674"
       transform="matrix(0.21697395,0,0,0.19922523,41.402001,27.677307)" />
    <path
       sodipodi:type="star"
       style="fill:#ffffff;fill-rule:evenodd;stroke:#ffffff;stroke-width:0"
       id="path14-2"
       sodipodi:sides="5"
       sodipodi:cx="40.534786"
       sodipodi:cy="54.33086"
       sodipodi:r1="8.4331713"
       sodipodi:r2="18.282173"
       sodipodi:arg1="-0.9745147"
       sodipodi:arg2="-0.34619618"
       inkscape:flatsided="false"
       inkscape:rounded="0"
       inkscape:randomized="0"
       d="M 45.270599,47.353006 57.732282,48.127314 48.634567,56.678611 51.749028,68.76965 40.804913,62.759704 30.268072,69.458069 32.601953,57.192422 22.975367,49.2412 35.361899,47.670559 39.949182,36.058068 Z"
       inkscape:transform-center-x="-1.8921269"
       inkscape:transform-center-y="-0.096017674"
       transform="matrix(0.21697395,0,0,0.19922523,54.060573,27.647244)" />
    <path
       sodipodi:type="star"
       style="fill:#ffffff;fill-rule:evenodd;stroke:#ffffff;stroke-width:0"
       id="path14-70"
       sodipodi:sides="5"
       sodipodi:cx="40.534786"
       sodipodi:cy="54.33086"
       sodipodi:r1="8.4331713"
       sodipodi:r2="18.282173"
       sodipodi:arg1="-0.9745147"
       sodipodi:arg2="-0.34619618"
       inkscape:flatsided="false"
       inkscape:rounded="0"
       inkscape:randomized="0"
       d="M 45.270599,47.353006 57.732282,48.127314 48.634567,56.678611 51.749028,68.76965 40.804913,62.759704 30.268072,69.458069 32.601953,57.192422 22.975367,49.2412 35.361899,47.670559 39.949182,36.058068 Z"
       inkscape:transform-center-x="-1.8921269"
       inkscape:transform-center-y="-0.096017674"
       transform="matrix(0.21697395,0,0,0.19922523,67.164714,27.77904)" />
    <path
       sodipodi:type="star"
       style="fill:#ffffff;fill-rule:evenodd;stroke:#ffffff;stroke-width:0"
       id="path14-93"
       sodipodi:sides="5"
       sodipodi:cx="40.534786"
       sodipodi:cy="54.33086"
       sodipodi:r1="8.4331713"
       sodipodi:r2="18.282173"
       sodipodi:arg1="-0.9745147"
       sodipodi:arg2="-0.34619618"
       inkscape:flatsided="false"
       inkscape:rounded="0"
       inkscape:randomized="0"
       d="M 45.270599,47.353006 57.732282,48.127314 48.634567,56.678611 51.749028,68.76965 40.804913,62.759704 30.268072,69.458069 32.601953,57.192422 22.975367,49.2412 35.361899,47.670559 39.949182,36.058068 Z"
       inkscape:transform-center-x="-1.8921269"
       inkscape:transform-center-y="-0.096017674"
       transform="matrix(0.21697395,0,0,0.19922523,9.8773049,32.725053)" />
    <path
       sodipodi:type="star"
       style="fill:#ffffff;fill-rule:evenodd;stroke:#ffffff;stroke-width:0"
       id="path14-60"
       sodipodi:sides="5"
       sodipodi:cx="40.534786"
       sodipodi:cy="54.33086"
       sodipodi:r1="8.4331713"
       sodipodi:r2="18.282173"
       sodipodi:arg1="-0.9745147"
       sodipodi:arg2="-0.34619618"
       inkscape:flatsided="false"
       inkscape:rounded="0"
       inkscape:randomized="0"
       d="M 45.270599,47.353006 57.732282,48.127314 48.634567,56.678611 51.749028,68.76965 40.804913,62.759704 30.268072,69.458069 32.601953,57.192422 22.975367,49.2412 35.361899,47.670559 39.949182,36.058068 Z"
       inkscape:transform-center-x="-1.8921269"
       inkscape:transform-center-y="-0.096017674"
       transform="matrix(0.21697395,0,0,0.19922523,22.059835,33.060121)" />
    <path
       sodipodi:type="star"
       style="fill:#ffffff;fill-rule:evenodd;stroke:#ffffff;stroke-width:0"
       id="path14-626"
       sodipodi:sides="5"
       sodipodi:cx="40.534786"
       sodipodi:cy="54.33086"
       sodipodi:r1="8.4331713"
       sodipodi:r2="18.282173"
       sodipodi:arg1="-0.9745147"
       sodipodi:arg2="-0.34619618"
       inkscape:flatsided="false"
       inkscape:rounded="0"
       inkscape:randomized="0"
       d="M 45.270599,47.353006 57.732282,48.127314 48.634567,56.678611 51.749028,68.76965 40.804913,62.759704 30.268072,69.458069 32.601953,57.192422 22.975367,49.2412 35.361899,47.670559 39.949182,36.058068 Z"
       inkscape:transform-center-x="-1.8921269"
       inkscape:transform-center-y="-0.096017674"
       transform="matrix(0.21697395,0,0,0.19922523,10.112736,43.700564)" />
    <path
       sodipodi:type="star"
       style="fill:#ffffff;fill-rule:evenodd;stroke:#ffffff;stroke-width:0"
       id="path14-18"
       sodipodi:sides="5"
       sodipodi:cx="40.534786"
       sodipodi:cy="54.33086"
       sodipodi:r1="8.4331713"
       sodipodi:r2="18.282173"
       sodipodi:arg1="-0.9745147"
       sodipodi:arg2="-0.34619618"
       inkscape:flatsided="false"
       inkscape:rounded="0"
       inkscape:randomized="0"
       d="M 45.270599,47.353006 57.732282,48.127314 48.634567,56.678611 51.749028,68.76965 40.804913,62.759704 30.268072,69.458069 32.601953,57.192422 22.975367,49.2412 35.361899,47.670559 39.949182,36.058068 Z"
       inkscape:transform-center-x="-1.8921269"
       inkscape:transform-center-y="-0.096017674"
       transform="matrix(0.21697395,0,0,0.19922523,9.8388005,55.19303)" />
    <path
       sodipodi:type="star"
       style="fill:#ffffff;fill-rule:evenodd;stroke:#ffffff;stroke-width:0"
       id="path14-79"
       sodipodi:sides="5"
       sodipodi:cx="40.534786"
       sodipodi:cy="54.33086"
       sodipodi:r1="8.4331713"
       sodipodi:r2="18.282173"
       sodipodi:arg1="-0.9745147"
       sodipodi:arg2="-0.34619618"
       inkscape:flatsided="false"
       inkscape:rounded="0"
       inkscape:randomized="0"
       d="M 45.270599,47.353006 57.732282,48.127314 48.634567,56.678611 51.749028,68.76965 40.804913,62.759704 30.268072,69.458069 32.601953,57.192422 22.975367,49.2412 35.361899,47.670559 39.949182,36.058068 Z"
       inkscape:transform-center-x="-1.8921269"
       inkscape:transform-center-y="-0.096017674"
       transform="matrix(0.21697395,0,0,0.19922523,35.217136,33.155862)" />
    <path
       sodipodi:type="star"
       style="fill:#ffffff;fill-rule:evenodd;stroke:#ffffff;stroke-width:0"
       id="path14-20"
       sodipodi:sides="5"
       sodipodi:cx="40.534786"
       sodipodi:cy="54.33086"
       sodipodi:r1="8.4331713"
       sodipodi:r2="18.282173"
       sodipodi:arg1="-0.9745147"
       sodipodi:arg2="-0.34619618"
       inkscape:flatsided="false"
       inkscape:rounded="0"
       inkscape:randomized="0"
       d="M 45.270599,47.353006 57.732282,48.127314 48.634567,56.678611 51.749028,68.76965 40.804913,62.759704 30.268072,69.458069 32.601953,57.192422 22.975367,49.2412 35.361899,47.670559 39.949182,36.058068 Z"
       inkscape:transform-center-x="-1.8921269"
       inkscape:transform-center-y="-0.096017674"
       transform="matrix(0.21697395,0,0,0.19922523,48.019962,33.248999)" />
    <path
       sodipodi:type="star"
       style="fill:#ffffff;fill-rule:evenodd;stroke:#ffffff;stroke-width:0"
       id="path14-23"
       sodipodi:sides="5"
       sodipodi:cx="40.534786"
       sodipodi:cy="54.33086"
       sodipodi:r1="8.4331713"
       sodipodi:r2="18.282173"
       sodipodi:arg1="-0.9745147"
       sodipodi:arg2="-0.34619618"
       inkscape:flatsided="false"
       inkscape:rounded="0"
       inkscape:randomized="0"
       d="M 45.270599,47.353006 57.732282,48.127314 48.634567,56.678611 51.749028,68.76965 40.804913,62.759704 30.268072,69.458069 32.601953,57.192422 22.975367,49.2412 35.361899,47.670559 39.949182,36.058068 Z"
       inkscape:transform-center-x="-1.8921269"
       inkscape:transform-center-y="-0.096017674"
       transform="matrix(0.21697395,0,0,0.19922523,60.385944,33.379525)" />
    <path
       sodipodi:type="star"
       style="fill:#ffffff;fill-rule:evenodd;stroke:#ffffff;stroke-width:0"
       id="path14-75"
       sodipodi:sides="5"
       sodipodi:cx="40.534786"
       sodipodi:cy="54.33086"
       sodipodi:r1="8.4331713"
       sodipodi:r2="18.282173"
       sodipodi:arg1="-0.9745147"
       sodipodi:arg2="-0.34619618"
       inkscape:flatsided="false"
       inkscape:rounded="0"
       inkscape:randomized="0"
       d="M 45.270599,47.353006 57.732282,48.127314 48.634567,56.678611 51.749028,68.76965 40.804913,62.759704 30.268072,69.458069 32.601953,57.192422 22.975367,49.2412 35.361899,47.670559 39.949182,36.058068 Z"
       inkscape:transform-center-x="-1.8921269"
       inkscape:transform-center-y="-0.096017674"
       transform="matrix(0.21697395,0,0,0.19922523,74.417086,33.088459)" />
    <path
       sodipodi:type="star"
       style="fill:#ffffff;fill-rule:evenodd;stroke:#ffffff;stroke-width:0"
       id="path14-92"
       sodipodi:sides="5"
       sodipodi:cx="40.534786"
       sodipodi:cy="54.33086"
       sodipodi:r1="8.4331713"
       sodipodi:r2="18.282173"
       sodipodi:arg1="-0.9745147"
       sodipodi:arg2="-0.34619618"
       inkscape:flatsided="false"
       inkscape:rounded="0"
       inkscape:randomized="0"
       d="M 45.270599,47.353006 57.732282,48.127314 48.634567,56.678611 51.749028,68.76965 40.804913,62.759704 30.268072,69.458069 32.601953,57.192422 22.975367,49.2412 35.361899,47.670559 39.949182,36.058068 Z"
       inkscape:transform-center-x="-1.8921269"
       inkscape:transform-center-y="-0.096017674"
       transform="matrix(0.21697395,0,0,0.19922523,9.9032175,65.283242)" />
    <path
       sodipodi:type="star"
       style="fill:#ffffff;fill-rule:evenodd;stroke:#ffffff;stroke-width:0"
       id="path14-28"
       sodipodi:sides="5"
       sodipodi:cx="40.534786"
       sodipodi:cy="54.33086"
       sodipodi:r1="8.4331713"
       sodipodi:r2="18.282173"
       sodipodi:arg1="-0.9745147"
       sodipodi:arg2="-0.34619618"
       inkscape:flatsided="false"
       inkscape:rounded="0"
       inkscape:randomized="0"
       d="M 45.270599,47.353006 57.732282,48.127314 48.634567,56.678611 51.749028,68.76965 40.804913,62.759704 30.268072,69.458069 32.601953,57.192422 22.975367,49.2412 35.361899,47.670559 39.949182,36.058068 Z"
       inkscape:transform-center-x="-1.8921269"
       inkscape:transform-center-y="-0.096017674"
       transform="matrix(0.21697395,0,0,0.19922523,48.046099,43.967201)" />
    <path
       sodipodi:type="star"
       style="fill:#ffffff;fill-rule:evenodd;stroke:#ffffff;stroke-width:0"
       id="path14-97"
       sodipodi:sides="5"
       sodipodi:cx="40.534786"
       sodipodi:cy="54.33086"
       sodipodi:r1="8.4331713"
       sodipodi:r2="18.282173"
       sodipodi:arg1="-0.9745147"
       sodipodi:arg2="-0.34619618"
       inkscape:flatsided="false"
       inkscape:rounded="0"
       inkscape:randomized="0"
       d="M 45.270599,47.353006 57.732282,48.127314 48.634567,56.678611 51.749028,68.76965 40.804913,62.759704 30.268072,69.458069 32.601953,57.192422 22.975367,49.2412 35.361899,47.670559 39.949182,36.058068 Z"
       inkscape:transform-center-x="-1.8921269"
       inkscape:transform-center-y="-0.096017674"
       transform="matrix(0.21697395,0,0,0.19922523,34.940096,43.686263)" />
    <path
       sodipodi:type="star"
       style="fill:#ffffff;fill-rule:evenodd;stroke:#ffffff;stroke-width:0"
       id="path14-36"
       sodipodi:sides="5"
       sodipodi:cx="40.534786"
       sodipodi:cy="54.33086"
       sodipodi:r1="8.4331713"
       sodipodi:r2="18.282173"
       sodipodi:arg1="-0.9745147"
       sodipodi:arg2="-0.34619618"
       inkscape:flatsided="false"
       inkscape:rounded="0"
       inkscape:randomized="0"
       d="M 45.270599,47.353006 57.732282,48.127314 48.634567,56.678611 51.749028,68.76965 40.804913,62.759704 30.268072,69.458069 32.601953,57.192422 22.975367,49.2412 35.361899,47.670559 39.949182,36.058068 Z"
       inkscape:transform-center-x="-1.8921269"
       inkscape:transform-center-y="-0.096017674"
       transform="matrix(0.21697395,0,0,0.19922523,21.463169,43.596277)" />
    <path
       sodipodi:type="star"
       style="fill:#ffffff;fill-rule:evenodd;stroke:#ffffff;stroke-width:0"
       id="path14-12"
       sodipodi:sides="5"
       sodipodi:cx="40.534786"
       sodipodi:cy="54.33086"
       sodipodi:r1="8.4331713"
       sodipodi:r2="18.282173"
       sodipodi:arg1="-0.9745147"
       sodipodi:arg2="-0.34619618"
       inkscape:flatsided="false"
       inkscape:rounded="0"
       inkscape:randomized="0"
       d="M 45.270599,47.353006 57.732282,48.127314 48.634567,56.678611 51.749028,68.76965 40.804913,62.759704 30.268072,69.458069 32.601953,57.192422 22.975367,49.2412 35.361899,47.670559 39.949182,36.058068 Z"
       inkscape:transform-center-x="-1.8921269"
       inkscape:transform-center-y="-0.096017674"
       transform="matrix(0.21697395,0,0,0.19922523,60.445817,44.265564)" />
    <path
       sodipodi:type="star"
       style="fill:#ffffff;fill-rule:evenodd;stroke:#ffffff;stroke-width:0"
       id="path14-931"
       sodipodi:sides="5"
       sodipodi:cx="40.534786"
       sodipodi:cy="54.33086"
       sodipodi:r1="8.4331713"
       sodipodi:r2="18.282173"
       sodipodi:arg1="-0.9745147"
       sodipodi:arg2="-0.34619618"
       inkscape:flatsided="false"
       inkscape:rounded="0"
       inkscape:randomized="0"
       d="M 45.270599,47.353006 57.732282,48.127314 48.634567,56.678611 51.749028,68.76965 40.804913,62.759704 30.268072,69.458069 32.601953,57.192422 22.975367,49.2412 35.361899,47.670559 39.949182,36.058068 Z"
       inkscape:transform-center-x="-1.8921269"
       inkscape:transform-center-y="-0.096017674"
       transform="matrix(0.21697395,0,0,0.19922523,73.567334,43.618474)" />
    <path
       sodipodi:type="star"
       style="fill:#ffffff;fill-rule:evenodd;stroke:#ffffff;stroke-width:0"
       id="path14-94"
       sodipodi:sides="5"
       sodipodi:cx="40.534786"
       sodipodi:cy="54.33086"
       sodipodi:r1="8.4331713"
       sodipodi:r2="18.282173"
       sodipodi:arg1="-0.9745147"
       sodipodi:arg2="-0.34619618"
       inkscape:flatsided="false"
       inkscape:rounded="0"
       inkscape:randomized="0"
       d="M 45.270599,47.353006 57.732282,48.127314 48.634567,56.678611 51.749028,68.76965 40.804913,62.759704 30.268072,69.458069 32.601953,57.192422 22.975367,49.2412 35.361899,47.670559 39.949182,36.058068 Z"
       inkscape:transform-center-x="-1.8921269"
       inkscape:transform-center-y="-0.096017674"
       transform="matrix(0.21697395,0,0,0.19922523,22.0735,55.025957)" />
    <path
       sodipodi:type="star"
       style="fill:#ffffff;fill-rule:evenodd;stroke:#ffffff;stroke-width:0"
       id="path14-78"
       sodipodi:sides="5"
       sodipodi:cx="40.534786"
       sodipodi:cy="54.33086"
       sodipodi:r1="8.4331713"
       sodipodi:r2="18.282173"
       sodipodi:arg1="-0.9745147"
       sodipodi:arg2="-0.34619618"
       inkscape:flatsided="false"
       inkscape:rounded="0"
       inkscape:randomized="0"
       d="M 45.270599,47.353006 57.732282,48.127314 48.634567,56.678611 51.749028,68.76965 40.804913,62.759704 30.268072,69.458069 32.601953,57.192422 22.975367,49.2412 35.361899,47.670559 39.949182,36.058068 Z"
       inkscape:transform-center-x="-1.8921269"
       inkscape:transform-center-y="-0.096017674"
       transform="matrix(0.21697395,0,0,0.19922523,34.790915,54.71566)" />
    <path
       sodipodi:type="star"
       style="fill:#ffffff;fill-rule:evenodd;stroke:#ffffff;stroke-width:0"
       id="path14-4"
       sodipodi:sides="5"
       sodipodi:cx="40.534786"
       sodipodi:cy="54.33086"
       sodipodi:r1="8.4331713"
       sodipodi:r2="18.282173"
       sodipodi:arg1="-0.9745147"
       sodipodi:arg2="-0.34619618"
       inkscape:flatsided="false"
       inkscape:rounded="0"
       inkscape:randomized="0"
       d="M 45.270599,47.353006 57.732282,48.127314 48.634567,56.678611 51.749028,68.76965 40.804913,62.759704 30.268072,69.458069 32.601953,57.192422 22.975367,49.2412 35.361899,47.670559 39.949182,36.058068 Z"
       inkscape:transform-center-x="-1.8921269"
       inkscape:transform-center-y="-0.096017674"
       transform="matrix(0.21697395,0,0,0.19922523,47.946087,54.1471)" />
    <path
       sodipodi:type="star"
       style="fill:#ffffff;fill-rule:evenodd;stroke:#ffffff;stroke-width:0"
       id="path14-50"
       sodipodi:sides="5"
       sodipodi:cx="40.534786"
       sodipodi:cy="54.33086"
       sodipodi:r1="8.4331713"
       sodipodi:r2="18.282173"
       sodipodi:arg1="-0.9745147"
       sodipodi:arg2="-0.34619618"
       inkscape:flatsided="false"
       inkscape:rounded="0"
       inkscape:randomized="0"
       d="M 45.270599,47.353006 57.732282,48.127314 48.634567,56.678611 51.749028,68.76965 40.804913,62.759704 30.268072,69.458069 32.601953,57.192422 22.975367,49.2412 35.361899,47.670559 39.949182,36.058068 Z"
       inkscape:transform-center-x="-1.8921269"
       inkscape:transform-center-y="-0.096017674"
       transform="matrix(0.21697395,0,0,0.19922523,60.602159,53.353217)" />
    <path
       sodipodi:type="star"
       style="fill:#ffffff;fill-rule:evenodd;stroke:#ffffff;stroke-width:0"
       id="path14-361"
       sodipodi:sides="5"
       sodipodi:cx="40.534786"
       sodipodi:cy="54.33086"
       sodipodi:r1="8.4331713"
       sodipodi:r2="18.282173"
       sodipodi:arg1="-0.9745147"
       sodipodi:arg2="-0.34619618"
       inkscape:flatsided="false"
       inkscape:rounded="0"
       inkscape:randomized="0"
       d="M 45.270599,47.353006 57.732282,48.127314 48.634567,56.678611 51.749028,68.76965 40.804913,62.759704 30.268072,69.458069 32.601953,57.192422 22.975367,49.2412 35.361899,47.670559 39.949182,36.058068 Z"
       inkscape:transform-center-x="-1.8921269"
       inkscape:transform-center-y="-0.096017674"
       transform="matrix(0.21697395,0,0,0.19922523,73.619369,53.893134)" />
    <path
       sodipodi:type="star"
       style="fill:#ffffff;fill-rule:evenodd;stroke:#ffffff;stroke-width:0"
       id="path14-0"
       sodipodi:sides="5"
       sodipodi:cx="40.534786"
       sodipodi:cy="54.33086"
       sodipodi:r1="8.4331713"
       sodipodi:r2="18.282173"
       sodipodi:arg1="-0.9745147"
       sodipodi:arg2="-0.34619618"
       inkscape:flatsided="false"
       inkscape:rounded="0"
       inkscape:randomized="0"
       d="M 45.270599,47.353006 57.732282,48.127314 48.634567,56.678611 51.749028,68.76965 40.804913,62.759704 30.268072,69.458069 32.601953,57.192422 22.975367,49.2412 35.361899,47.670559 39.949182,36.058068 Z"
       inkscape:transform-center-x="-1.8921269"
       inkscape:transform-center-y="-0.096017674"
       transform="matrix(0.21697395,0,0,0.19922523,21.985423,65.150481)" />
    <path
       sodipodi:type="star"
       style="fill:#ffffff;fill-rule:evenodd;stroke:#ffffff;stroke-width:0"
       id="path14-63"
       sodipodi:sides="5"
       sodipodi:cx="40.534786"
       sodipodi:cy="54.33086"
       sodipodi:r1="8.4331713"
       sodipodi:r2="18.282173"
       sodipodi:arg1="-0.9745147"
       sodipodi:arg2="-0.34619618"
       inkscape:flatsided="false"
       inkscape:rounded="0"
       inkscape:randomized="0"
       d="M 45.270599,47.353006 57.732282,48.127314 48.634567,56.678611 51.749028,68.76965 40.804913,62.759704 30.268072,69.458069 32.601953,57.192422 22.975367,49.2412 35.361899,47.670559 39.949182,36.058068 Z"
       inkscape:transform-center-x="-1.8921269"
       inkscape:transform-center-y="-0.096017674"
       transform="matrix(0.21697395,0,0,0.19922523,34.575377,64.565451)" />
    <path
       sodipodi:type="star"
       style="fill:#ffffff;fill-rule:evenodd;stroke:#ffffff;stroke-width:0"
       id="path14-206"
       sodipodi:sides="5"
       sodipodi:cx="40.534786"
       sodipodi:cy="54.33086"
       sodipodi:r1="8.4331713"
       sodipodi:r2="18.282173"
       sodipodi:arg1="-0.9745147"
       sodipodi:arg2="-0.34619618"
       inkscape:flatsided="false"
       inkscape:rounded="0"
       inkscape:randomized="0"
       d="M 45.270599,47.353006 57.732282,48.127314 48.634567,56.678611 51.749028,68.76965 40.804913,62.759704 30.268072,69.458069 32.601953,57.192422 22.975367,49.2412 35.361899,47.670559 39.949182,36.058068 Z"
       inkscape:transform-center-x="-1.8921269"
       inkscape:transform-center-y="-0.096017674"
       transform="matrix(0.21697395,0,0,0.19922523,47.525754,64.215053)" />
    <path
       sodipodi:type="star"
       style="fill:#ffffff;fill-rule:evenodd;stroke:#ffffff;stroke-width:0"
       id="path14-15"
       sodipodi:sides="5"
       sodipodi:cx="40.534786"
       sodipodi:cy="54.33086"
       sodipodi:r1="8.4331713"
       sodipodi:r2="18.282173"
       sodipodi:arg1="-0.9745147"
       sodipodi:arg2="-0.34619618"
       inkscape:flatsided="false"
       inkscape:rounded="0"
       inkscape:randomized="0"
       d="M 45.270599,47.353006 57.732282,48.127314 48.634567,56.678611 51.749028,68.76965 40.804913,62.759704 30.268072,69.458069 32.601953,57.192422 22.975367,49.2412 35.361899,47.670559 39.949182,36.058068 Z"
       inkscape:transform-center-x="-1.8921269"
       inkscape:transform-center-y="-0.096017674"
       transform="matrix(0.21697395,0,0,0.19922523,60.146021,64.390253)" />
    <path
       sodipodi:type="star"
       style="fill:#ffffff;fill-rule:evenodd;stroke:#ffffff;stroke-width:0"
       id="path14-54"
       sodipodi:sides="5"
       sodipodi:cx="40.534786"
       sodipodi:cy="54.33086"
       sodipodi:r1="8.4331713"
       sodipodi:r2="18.282173"
       sodipodi:arg1="-0.9745147"
       sodipodi:arg2="-0.34619618"
       inkscape:flatsided="false"
       inkscape:rounded="0"
       inkscape:randomized="0"
       d="M 45.270599,47.353006 57.732282,48.127314 48.634567,56.678611 51.749028,68.76965 40.804913,62.759704 30.268072,69.458069 32.601953,57.192422 22.975367,49.2412 35.361899,47.670559 39.949182,36.058068 Z"
       inkscape:transform-center-x="-1.8921269"
       inkscape:transform-center-y="-0.096017674"
       transform="matrix(0.21697395,0,0,0.19922523,72.105834,64.473077)" />
    <path
       sodipodi:type="star"
       style="fill:#ffffff;fill-rule:evenodd;stroke:#ffffff;stroke-width:0"
       id="path14-76"
       sodipodi:sides="5"
       sodipodi:cx="40.534786"
       sodipodi:cy="54.33086"
       sodipodi:r1="8.4331713"
       sodipodi:r2="18.282173"
       sodipodi:arg1="-0.9745147"
       sodipodi:arg2="-0.34619618"
       inkscape:flatsided="false"
       inkscape:rounded="0"
       inkscape:randomized="0"
       d="M 45.270599,47.353006 57.732282,48.127314 48.634567,56.678611 51.749028,68.76965 40.804913,62.759704 30.268072,69.458069 32.601953,57.192422 22.975367,49.2412 35.361899,47.670559 39.949182,36.058068 Z"
       inkscape:transform-center-x="-1.8921269"
       inkscape:transform-center-y="-0.096017674"
       transform="matrix(0.21697395,0,0,0.19922523,15.280916,38.4261)" />
    <path
       sodipodi:type="star"
       style="fill:#ffffff;fill-rule:evenodd;stroke:#ffffff;stroke-width:0"
       id="path14-56"
       sodipodi:sides="5"
       sodipodi:cx="40.534786"
       sodipodi:cy="54.33086"
       sodipodi:r1="8.4331713"
       sodipodi:r2="18.282173"
       sodipodi:arg1="-0.9745147"
       sodipodi:arg2="-0.34619618"
       inkscape:flatsided="false"
       inkscape:rounded="0"
       inkscape:randomized="0"
       d="M 45.270599,47.353006 57.732282,48.127314 48.634567,56.678611 51.749028,68.76965 40.804913,62.759704 30.268072,69.458069 32.601953,57.192422 22.975367,49.2412 35.361899,47.670559 39.949182,36.058068 Z"
       inkscape:transform-center-x="-1.8921269"
       inkscape:transform-center-y="-0.096017674"
       transform="matrix(0.21697395,0,0,0.19922523,28.095177,38.246751)" />
    <path
       sodipodi:type="star"
       style="fill:#ffffff;fill-rule:evenodd;stroke:#ffffff;stroke-width:0"
       id="path14-937"
       sodipodi:sides="5"
       sodipodi:cx="40.534786"
       sodipodi:cy="54.33086"
       sodipodi:r1="8.4331713"
       sodipodi:r2="18.282173"
       sodipodi:arg1="-0.9745147"
       sodipodi:arg2="-0.34619618"
       inkscape:flatsided="false"
       inkscape:rounded="0"
       inkscape:randomized="0"
       d="M 45.270599,47.353006 57.732282,48.127314 48.634567,56.678611 51.749028,68.76965 40.804913,62.759704 30.268072,69.458069 32.601953,57.192422 22.975367,49.2412 35.361899,47.670559 39.949182,36.058068 Z"
       inkscape:transform-center-x="-1.8921269"
       inkscape:transform-center-y="-0.096017674"
       transform="matrix(0.21697395,0,0,0.19922523,41.472852,38.496593)" />
    <path
       sodipodi:type="star"
       style="fill:#ffffff;fill-rule:evenodd;stroke:#ffffff;stroke-width:0"
       id="path14-45"
       sodipodi:sides="5"
       sodipodi:cx="40.534786"
       sodipodi:cy="54.33086"
       sodipodi:r1="8.4331713"
       sodipodi:r2="18.282173"
       sodipodi:arg1="-0.9745147"
       sodipodi:arg2="-0.34619618"
       inkscape:flatsided="false"
       inkscape:rounded="0"
       inkscape:randomized="0"
       d="M 45.270599,47.353006 57.732282,48.127314 48.634567,56.678611 51.749028,68.76965 40.804913,62.759704 30.268072,69.458069 32.601953,57.192422 22.975367,49.2412 35.361899,47.670559 39.949182,36.058068 Z"
       inkscape:transform-center-x="-1.8921269"
       inkscape:transform-center-y="-0.096017674"
       transform="matrix(0.21697395,0,0,0.19922523,53.867997,38.587279)" />
    <path
       sodipodi:type="star"
       style="fill:#ffffff;fill-rule:evenodd;stroke:#ffffff;stroke-width:0"
       id="path14-25"
       sodipodi:sides="5"
       sodipodi:cx="40.534786"
       sodipodi:cy="54.33086"
       sodipodi:r1="8.4331713"
       sodipodi:r2="18.282173"
       sodipodi:arg1="-0.9745147"
       sodipodi:arg2="-0.34619618"
       inkscape:flatsided="false"
       inkscape:rounded="0"
       inkscape:randomized="0"
       d="M 45.270599,47.353006 57.732282,48.127314 48.634567,56.678611 51.749028,68.76965 40.804913,62.759704 30.268072,69.458069 32.601953,57.192422 22.975367,49.2412 35.361899,47.670559 39.949182,36.058068 Z"
       inkscape:transform-center-x="-1.8921269"
       inkscape:transform-center-y="-0.096017674"
       transform="matrix(0.21697395,0,0,0.19922523,66.93496,38.649457)" />
    <path
       sodipodi:type="star"
       style="fill:#ffffff;fill-rule:evenodd;stroke:#ffffff;stroke-width:0"
       id="path14-47"
       sodipodi:sides="5"
       sodipodi:cx="40.534786"
       sodipodi:cy="54.33086"
       sodipodi:r1="8.4331713"
       sodipodi:r2="18.282173"
       sodipodi:arg1="-0.9745147"
       sodipodi:arg2="-0.34619618"
       inkscape:flatsided="false"
       inkscape:rounded="0"
       inkscape:randomized="0"
       d="M 45.270599,47.353006 57.732282,48.127314 48.634567,56.678611 51.749028,68.76965 40.804913,62.759704 30.268072,69.458069 32.601953,57.192422 22.975367,49.2412 35.361899,47.670559 39.949182,36.058068 Z"
       inkscape:transform-center-x="-1.8921269"
       inkscape:transform-center-y="-0.096017674"
       transform="matrix(0.21697395,0,0,0.19922523,67.828539,49.012467)" />
    <path
       sodipodi:type="star"
       style="fill:#ffffff;fill-rule:evenodd;stroke:#ffffff;stroke-width:0"
       id="path14-44"
       sodipodi:sides="5"
       sodipodi:cx="40.534786"
       sodipodi:cy="54.33086"
       sodipodi:r1="8.4331713"
       sodipodi:r2="18.282173"
       sodipodi:arg1="-0.9745147"
       sodipodi:arg2="-0.34619618"
       inkscape:flatsided="false"
       inkscape:rounded="0"
       inkscape:randomized="0"
       d="M 45.270599,47.353006 57.732282,48.127314 48.634567,56.678611 51.749028,68.76965 40.804913,62.759704 30.268072,69.458069 32.601953,57.192422 22.975367,49.2412 35.361899,47.670559 39.949182,36.058068 Z"
       inkscape:transform-center-x="-1.8921269"
       inkscape:transform-center-y="-0.096017674"
       transform="matrix(0.21697395,0,0,0.19922523,54.359024,49.462657)" />
    <path
       sodipodi:type="star"
       style="fill:#ffffff;fill-rule:evenodd;stroke:#ffffff;stroke-width:0"
       id="path14-30"
       sodipodi:sides="5"
       sodipodi:cx="40.534786"
       sodipodi:cy="54.33086"
       sodipodi:r1="8.4331713"
       sodipodi:r2="18.282173"
       sodipodi:arg1="-0.9745147"
       sodipodi:arg2="-0.34619618"
       inkscape:flatsided="false"
       inkscape:rounded="0"
       inkscape:randomized="0"
       d="M 45.270599,47.353006 57.732282,48.127314 48.634567,56.678611 51.749028,68.76965 40.804913,62.759704 30.268072,69.458069 32.601953,57.192422 22.975367,49.2412 35.361899,47.670559 39.949182,36.058068 Z"
       inkscape:transform-center-x="-1.8921269"
       inkscape:transform-center-y="-0.096017674"
       transform="matrix(0.21697395,0,0,0.19922523,41.702952,50.25654)" />
    <path
       sodipodi:type="star"
       style="fill:#ffffff;fill-rule:evenodd;stroke:#ffffff;stroke-width:0"
       id="path14-786"
       sodipodi:sides="5"
       sodipodi:cx="40.534786"
       sodipodi:cy="54.33086"
       sodipodi:r1="8.4331713"
       sodipodi:r2="18.282173"
       sodipodi:arg1="-0.9745147"
       sodipodi:arg2="-0.34619618"
       inkscape:flatsided="false"
       inkscape:rounded="0"
       inkscape:randomized="0"
       d="M 45.270599,47.353006 57.732282,48.127314 48.634567,56.678611 51.749028,68.76965 40.804913,62.759704 30.268072,69.458069 32.601953,57.192422 22.975367,49.2412 35.361899,47.670559 39.949182,36.058068 Z"
       inkscape:transform-center-x="-1.8921269"
       inkscape:transform-center-y="-0.096017674"
       transform="matrix(0.21697395,0,0,0.19922523,28.032518,50.776332)" />
    <path
       sodipodi:type="star"
       style="fill:#ffffff;fill-rule:evenodd;stroke:#ffffff;stroke-width:0"
       id="path14-8"
       sodipodi:sides="5"
       sodipodi:cx="40.534786"
       sodipodi:cy="54.33086"
       sodipodi:r1="8.4331713"
       sodipodi:r2="18.282173"
       sodipodi:arg1="-0.9745147"
       sodipodi:arg2="-0.34619618"
       inkscape:flatsided="false"
       inkscape:rounded="0"
       inkscape:randomized="0"
       d="M 45.270599,47.353006 57.732282,48.127314 48.634567,56.678611 51.749028,68.76965 40.804913,62.759704 30.268072,69.458069 32.601953,57.192422 22.975367,49.2412 35.361899,47.670559 39.949182,36.058068 Z"
       inkscape:transform-center-x="-1.8921269"
       inkscape:transform-center-y="-0.096017674"
       transform="matrix(0.21697395,0,0,0.19922523,15.797819,50.943405)" />
    <path
       sodipodi:type="star"
       style="fill:#ffffff;fill-rule:evenodd;stroke:#ffffff;stroke-width:0"
       id="path14-84"
       sodipodi:sides="5"
       sodipodi:cx="40.534786"
       sodipodi:cy="54.33086"
       sodipodi:r1="8.4331713"
       sodipodi:r2="18.282173"
       sodipodi:arg1="-0.9745147"
       sodipodi:arg2="-0.34619618"
       inkscape:flatsided="false"
       inkscape:rounded="0"
       inkscape:randomized="0"
       d="M 45.270599,47.353006 57.732282,48.127314 48.634567,56.678611 51.749028,68.76965 40.804913,62.759704 30.268072,69.458069 32.601953,57.192422 22.975367,49.2412 35.361899,47.670559 39.949182,36.058068 Z"
       inkscape:transform-center-x="-1.8921269"
       inkscape:transform-center-y="-0.096017674"
       transform="matrix(0.21697395,0,0,0.19922523,15.862236,61.033617)" />
    <path
       sodipodi:type="star"
       style="fill:#ffffff;fill-rule:evenodd;stroke:#ffffff;stroke-width:0"
       id="path14-31"
       sodipodi:sides="5"
       sodipodi:cx="40.534786"
       sodipodi:cy="54.33086"
       sodipodi:r1="8.4331713"
       sodipodi:r2="18.282173"
       sodipodi:arg1="-0.9745147"
       sodipodi:arg2="-0.34619618"
       inkscape:flatsided="false"
       inkscape:rounded="0"
       inkscape:randomized="0"
       d="M 45.270599,47.353006 57.732282,48.127314 48.634567,56.678611 51.749028,68.76965 40.804913,62.759704 30.268072,69.458069 32.601953,57.192422 22.975367,49.2412 35.361899,47.670559 39.949182,36.058068 Z"
       inkscape:transform-center-x="-1.8921269"
       inkscape:transform-center-y="-0.096017674"
       transform="matrix(0.21697395,0,0,0.19922523,28.332242,60.674891)" />
    <path
       sodipodi:type="star"
       style="fill:#ffffff;fill-rule:evenodd;stroke:#ffffff;stroke-width:0"
       id="path14-49"
       sodipodi:sides="5"
       sodipodi:cx="40.534786"
       sodipodi:cy="54.33086"
       sodipodi:r1="8.4331713"
       sodipodi:r2="18.282173"
       sodipodi:arg1="-0.9745147"
       sodipodi:arg2="-0.34619618"
       inkscape:flatsided="false"
       inkscape:rounded="0"
       inkscape:randomized="0"
       d="M 45.270599,47.353006 57.732282,48.127314 48.634567,56.678611 51.749028,68.76965 40.804913,62.759704 30.268072,69.458069 32.601953,57.192422 22.975367,49.2412 35.361899,47.670559 39.949182,36.058068 Z"
       inkscape:transform-center-x="-1.8921269"
       inkscape:transform-center-y="-0.096017674"
       transform="matrix(0.21697395,0,0,0.19922523,40.534395,60.315826)" />
    <path
       sodipodi:type="star"
       style="fill:#ffffff;fill-rule:evenodd;stroke:#ffffff;stroke-width:0"
       id="path14-2068"
       sodipodi:sides="5"
       sodipodi:cx="40.534786"
       sodipodi:cy="54.33086"
       sodipodi:r1="8.4331713"
       sodipodi:r2="18.282173"
       sodipodi:arg1="-0.9745147"
       sodipodi:arg2="-0.34619618"
       inkscape:flatsided="false"
       inkscape:rounded="0"
       inkscape:randomized="0"
       d="M 45.270599,47.353006 57.732282,48.127314 48.634567,56.678611 51.749028,68.76965 40.804913,62.759704 30.268072,69.458069 32.601953,57.192422 22.975367,49.2412 35.361899,47.670559 39.949182,36.058068 Z"
       inkscape:transform-center-x="-1.8921269"
       inkscape:transform-center-y="-0.096017674"
       transform="matrix(0.21697395,0,0,0.19922523,53.484772,59.965428)" />
    <path
       sodipodi:type="star"
       style="fill:#ffffff;fill-rule:evenodd;stroke:#ffffff;stroke-width:0"
       id="path14-926"
       sodipodi:sides="5"
       sodipodi:cx="40.534786"
       sodipodi:cy="54.33086"
       sodipodi:r1="8.4331713"
       sodipodi:r2="18.282173"
       sodipodi:arg1="-0.9745147"
       sodipodi:arg2="-0.34619618"
       inkscape:flatsided="false"
       inkscape:rounded="0"
       inkscape:randomized="0"
       d="M 45.270599,47.353006 57.732282,48.127314 48.634567,56.678611 51.749028,68.76965 40.804913,62.759704 30.268072,69.458069 32.601953,57.192422 22.975367,49.2412 35.361899,47.670559 39.949182,36.058068 Z"
       inkscape:transform-center-x="-1.8921269"
       inkscape:transform-center-y="-0.096017674"
       transform="matrix(0.21697395,0,0,0.19922523,67.660351,58.142759)" />
    <rect
       style="fill:#ff0000;fill-rule:evenodd;stroke:#ffffff;stroke-width:0"
       id="rect337"
       width="112.18605"
       height="7.6999998"
       x="89.587486"
       y="27.27697" />
    <rect
       style="fill:#ffffff;fill-rule:evenodd;stroke:#ffffff;stroke-width:0"
       id="rect339"
       width="112.05305"
       height="7.6999998"
       x="89.587486"
       y="34.976971" />
    <rect
       style="fill:#ff0000;fill-rule:evenodd;stroke:#ffffff;stroke-width:0"
       id="rect337-6"
       width="112.18606"
       height="7.6999998"
       x="89.454468"
       y="42.676971" />
    <rect
       style="fill:#ffffff;fill-rule:evenodd;stroke:#ffffff;stroke-width:0"
       id="rect339-4"
       width="112.05305"
       height="7.6999998"
       x="89.587479"
       y="50.376972" />
    <rect
       style="fill:#ff0000;fill-rule:evenodd;stroke:#ffffff;stroke-width:0"
       id="rect337-6-9"
       width="112.18607"
       height="7.6999998"
       x="89.45446"
       y="58.076973" />
    <rect
       style="fill:#ffffff;fill-rule:evenodd;stroke:#ffffff;stroke-width:0"
       id="rect339-5"
       width="112.05305"
       height="7.6999998"
       x="89.587486"
       y="65.77697" />
    <rect
       style="fill:#ff0000;fill-rule:evenodd;stroke:#ffffff;stroke-width:0"
       id="rect337-6-9-0"
       width="112.18607"
       height="7.6999998"
       x="89.454468"
       y="73.476967" />
    <rect
       style="fill:#ffffff;fill-rule:evenodd;stroke:#ffffff;stroke-width:0"
       id="rect339-5-4"
       width="189.71239"
       height="7.6999993"
       x="11.928144"
       y="81.176964" />
    <rect
       style="fill:#ff0000;fill-rule:evenodd;stroke:#ffffff;stroke-width:0"
       id="rect337-6-9-0-8"
       width="189.71239"
       height="7.6999998"
       x="11.928144"
       y="88.876961" />
    <rect
       style="fill:#ffffff;fill-rule:evenodd;stroke:#ffffff;stroke-width:0"
       id="rect339-5-4-7"
       width="189.71239"
       height="7.6999993"
       x="11.92815"
       y="96.576958" />
    <rect
       style="fill:#ff0000;fill-rule:evenodd;stroke:#ffffff;stroke-width:0"
       id="rect337-6-9-0-8-1"
       width="189.71239"
       height="7.6999998"
       x="11.928143"
       y="104.27695" />
    <rect
       style="fill:#ffffff;fill-rule:evenodd;stroke:#ffffff;stroke-width:0"
       id="rect339-5-4-7-7"
       width="189.71239"
       height="7.6999993"
       x="11.92815"
       y="111.97694" />
    <rect
       style="fill:#ff0000;fill-rule:evenodd;stroke:#ffffff;stroke-width:0"
       id="rect337-6-9-0-8-1-2"
       width="189.71239"
       height="7.6999998"
       x="12.050398"
       y="119.57697" />
  </g>
</svg>
