<?xml version="1.0" encoding="UTF-8" standalone="no"?>
<svg
   width="51.792423mm"
   height="66.80674mm"
   viewBox="0 0 51.792423 66.806739"
   version="1.1"
   id="svg8"
   inkscape:version="1.2.1 (9c6d41e410, 2022-07-14)"
   sodipodi:docname="hand2.svg"
   inkscape:export-filename="hand22.png"
   inkscape:export-xdpi="12"
   inkscape:export-ydpi="12"
   xmlns:inkscape="http://www.inkscape.org/namespaces/inkscape"
   xmlns:sodipodi="http://sodipodi.sourceforge.net/DTD/sodipodi-0.dtd"
   xmlns="http://www.w3.org/2000/svg"
   xmlns:svg="http://www.w3.org/2000/svg"
   xmlns:rdf="http://www.w3.org/1999/02/22-rdf-syntax-ns#"
   xmlns:cc="http://creativecommons.org/ns#"
   xmlns:dc="http://purl.org/dc/elements/1.1/">
  <defs
     id="defs2" />
  <sodipodi:namedview
     id="base"
     pagecolor="#ffffff"
     bordercolor="#666666"
     borderopacity="1.0"
     inkscape:pageopacity="0.0"
     inkscape:pageshadow="2"
     inkscape:zoom="1"
     inkscape:cx="-190"
     inkscape:cy="148"
     inkscape:document-units="mm"
     inkscape:current-layer="layer1"
     inkscape:document-rotation="0"
     showgrid="false"
     inkscape:snap-to-guides="false"
     inkscape:window-width="1844"
     inkscape:window-height="1011"
     inkscape:window-x="76"
     inkscape:window-y="32"
     inkscape:window-maximized="1"
     inkscape:showpageshadow="2"
     inkscape:pagecheckerboard="0"
     inkscape:deskcolor="#d1d1d1" />
  <metadata
     id="metadata5">
    <rdf:RDF>
      <cc:Work
         rdf:about="">
        <dc:format>image/svg+xml</dc:format>
        <dc:type
           rdf:resource="http://purl.org/dc/dcmitype/StillImage" />
      </cc:Work>
    </rdf:RDF>
  </metadata>
  <g
     inkscape:label="Layer 1"
     inkscape:groupmode="layer"
     id="layer1"
     transform="translate(-49.01646,-90.138058)">
    <path
       style="fill:#ffa0a0;fill-opacity:1;stroke:#000000;stroke-width:1;stroke-linecap:butt;stroke-linejoin:miter;stroke-miterlimit:4;stroke-dasharray:none;stroke-opacity:1"
       d="m 57.631671,140.73328 c -0.944429,-7.53804 -1.570069,-10.20831 -3.812761,-13.86791 -1.048885,-1.71156 -2.386487,-3.40475 -3.289642,-5.17945 -0.61815,-1.21466 -1.032783,-2.46751 -1.012034,-3.79056 0.107456,-1.5395 0.29595,-2.31694 1.062116,-2.97385 0.863892,-0.7407 1.864731,-0.83787 3.075249,-0.80856 1.349893,0.0327 2.728286,0.73278 3.909705,1.79312 1.069525,0.95992 2.246921,2.09245 3.530245,3.65492 1.676901,2.04166 2.246954,4.0641 3.09065,6.52132 0.293766,0.85557 0.443087,1.50324 0.443087,2.39962 v 0.71529 c -0.531343,-7.06558 -0.815321,-13.8539 -1.048687,-21.08486 -0.04011,-5.7759 -0.158453,-9.145817 0.632003,-12.670345 0.567216,-2.529135 1.10318,-4.732023 3.531603,-4.803957 2.144433,-0.06352 3.101607,1.010259 3.785785,5.454123 0.593278,3.853445 0.679762,8.754919 1.011761,11.523589 0,0 0.211586,3.98035 0.485669,7.19565 0.218858,2.56745 1.524094,4.75648 1.524094,4.75648 0.200055,-5.00954 0.406437,-7.49926 0.980664,-11.41877 0.748232,-3.602 2.258791,-5.23289 4.617021,-5.37812 1.786152,-0.11 3.902999,0.67915 3.970375,3.61359 0.07027,3.06035 -0.162583,4.74622 -0.496324,7.66034 -0.463756,4.04936 -1.567013,6.64065 0.31307,7.34245 1.343255,-4.24538 1.323811,-4.75996 2.186959,-7.69233 1.036868,-2.94429 2.047149,-4.89855 5.13053,-4.19672 2.036157,0.46992 3.606069,1.71926 3.013272,4.36516 -0.561464,2.50605 -1.047832,3.12082 -1.71607,5.93991 -0.737641,2.57141 -1.771999,4.37231 -0.428251,5.074 0,0 1.010508,-2.07137 2.434174,-4.325 1.502706,-2.37875 2.909396,-5.25088 4.698626,-3.88238 1.28973,0.98645 1.65039,2.42653 0.79759,4.80494 -1.339981,3.73708 -1.786652,4.8468 -2.921388,7.88583 -2.09863,5.50724 -3.828513,10.06401 -5.945325,16.77664 -0.861021,3.94771 -1.825808,9.21185 -5.565398,10.24089 -5.05031,0.0845 -12.122885,0.12595 -18.486991,-0.11185 -2.383917,-0.57253 -3.612898,-2.35821 -5.00945,-4.291 -2.210013,-3.05859 -3.686506,-6.69956 -4.491927,-11.2422 z"
       id="path10"
       sodipodi:nodetypes="csscssssssccssscsccasscccscssssccccsc" />
    <path
       style="fill:#ccff99;fill-rule:evenodd;stroke:none;stroke-width:0.125828"
       d="m 54.071661,122.10189 c -0.940151,0.44212 -1.414819,0.37123 -1.82551,0.0809 -0.558199,-0.39464 -0.773171,-0.70705 -1.068651,-1.23144 -0.536627,-0.93824 -0.744159,-1.4899 -0.876963,-2.45086 -0.04728,-1.00211 0.09443,-2.44065 0.895851,-3.0676 0.601723,-0.3945 0.913435,-0.41119 1.745925,-0.48644 1.142218,-0.10324 2.146151,0.14663 3.064748,0.76279 0.845254,0.56696 1.312359,1.05573 2.007148,2.08648 0.205275,0.30453 0.383268,0.82245 0.244685,1.34517 -0.08277,0.31221 -0.263229,0.64831 -0.648782,0.89735 -1.210409,0.78183 -2.263548,1.42599 -3.538451,2.06367 z"
       id="path25"
       sodipodi:nodetypes="csccccssssc" />
    <path
       style="fill:#ccff99;fill-rule:evenodd;stroke:none;stroke-width:0.117979"
       d="m 65.623179,96.000903 c -0.510317,-0.118418 -0.680598,-0.602459 -0.649639,-0.759046 0.0687,-0.347453 0.384861,-1.512763 0.500774,-1.845731 0.411395,-1.181765 0.925639,-1.757019 1.749864,-1.957475 0.306625,-0.07457 0.971501,-0.0817 1.308932,-0.01404 0.905942,0.181672 1.435612,0.919295 1.857685,2.587025 0.121522,0.480172 0.303032,1.379482 0.303032,1.501408 0,0.05898 -0.13656,0.358089 -0.561897,0.441515 -1.743316,0.03014 -2.713693,0.06924 -4.508751,0.04634 z"
       id="path27"
       sodipodi:nodetypes="cssccsscc" />
  </g>
</svg>
