<?xml version="1.0" encoding="UTF-8" standalone="no"?>
<svg
   xmlns:dc="http://purl.org/dc/elements/1.1/"
   xmlns:cc="http://creativecommons.org/ns#"
   xmlns:rdf="http://www.w3.org/1999/02/22-rdf-syntax-ns#"
   xmlns:svg="http://www.w3.org/2000/svg"
   xmlns="http://www.w3.org/2000/svg"
   xmlns:sodipodi="http://sodipodi.sourceforge.net/DTD/sodipodi-0.dtd"
   xmlns:inkscape="http://www.inkscape.org/namespaces/inkscape"
   width="59.44352mm"
   height="59.160034mm"
   viewBox="0 0 59.44352 59.160034"
   version="1.1"
   id="svg8"
   inkscape:version="1.0.1 (3bc2e813f5, 2020-09-07)"
   sodipodi:docname="settings.svg">
  <defs
     id="defs2" />
  <sodipodi:namedview
     id="base"
     pagecolor="#ffffff"
     bordercolor="#666666"
     borderopacity="1.0"
     inkscape:pageopacity="0.0"
     inkscape:pageshadow="2"
     inkscape:zoom="1"
     inkscape:cx="-64.923589"
     inkscape:cy="53.260508"
     inkscape:document-units="mm"
     inkscape:current-layer="layer1"
     inkscape:document-rotation="0"
     showgrid="false"
     inkscape:window-width="1920"
     inkscape:window-height="1013"
     inkscape:window-x="0"
     inkscape:window-y="0"
     inkscape:window-maximized="1" />
  <metadata
     id="metadata5">
    <rdf:RDF>
      <cc:Work
         rdf:about="">
        <dc:format>image/svg+xml</dc:format>
        <dc:type
           rdf:resource="http://purl.org/dc/dcmitype/StillImage" />
        <dc:title></dc:title>
      </cc:Work>
    </rdf:RDF>
  </metadata>
  <g
     inkscape:label="Layer 1"
     inkscape:groupmode="layer"
     id="layer1"
     transform="translate(-57.96133,-64.236336)">
    <path
       style="fill:#000000;fill-rule:evenodd;stroke:#000000;stroke-width:2;stroke-opacity:1"
       id="path10"
       sodipodi:type="arc"
       sodipodi:cx="87.68309"
       sodipodi:cy="93.816353"
       sodipodi:rx="28.72176"
       sodipodi:ry="28.580017"
       sodipodi:start="6.052624"
       sodipodi:end="6.0379686"
       sodipodi:arc-type="slice"
       d="M 115.64482,87.285133 A 28.72176,28.580017 0 0 1 94.349105,121.61598 28.72176,28.580017 0 0 1 59.770204,100.55128 28.72176,28.580017 0 0 1 80.812538,66.06608 28.72176,28.580017 0 0 1 115.54563,86.878081 l -27.86254,6.938272 z" />
    <path
       sodipodi:type="star"
       style="fill:#ffffff;fill-opacity:1;fill-rule:evenodd;stroke:#ffffff;stroke-width:0;stroke-miterlimit:4;stroke-dasharray:none;stroke-dashoffset:0;stroke-opacity:1"
       id="path864"
       sodipodi:sides="16"
       sodipodi:cx="87.941932"
       sodipodi:cy="93.604052"
       sodipodi:r1="20.336927"
       sodipodi:r2="15.824629"
       sodipodi:arg1="0.76030742"
       sodipodi:arg2="0.95665696"
       inkscape:flatsided="false"
       inkscape:rounded="0"
       inkscape:randomized="0"
       d="m 102.67856,107.61913 -5.6176,-1.08209 -0.867494,5.65472 -4.775891,-3.14949 -2.965427,4.89231 -3.207094,-4.7374 -4.6119,3.38508 -1.150045,-5.60409 -5.556253,1.36251 1.082087,-5.6176 -5.654717,-0.8675 3.149482,-4.775888 -4.892302,-2.965427 4.737396,-3.207094 -3.385077,-4.6119 5.604084,-1.150045 -1.362506,-5.556253 5.617602,1.082087 0.867495,-5.654717 4.775891,3.149482 2.965427,-4.892302 3.207093,4.737396 4.6119,-3.385077 1.150045,5.604084 5.556254,-1.362506 -1.08209,5.617602 5.65472,0.867495 -3.14948,4.775891 4.8923,2.965427 -4.7374,3.207093 3.38508,4.611902 -5.60408,1.15004 z" />
  </g>
</svg>
